<?xml version="1.0" encoding="utf-8"?>
<!-- Generator: Adobe Illustrator 27.0.0, SVG Export Plug-In . SVG Version: 6.00 Build 0)  -->
<svg version="1.1" id="lil_hexes" xmlns="http://www.w3.org/2000/svg" xmlns:xlink="http://www.w3.org/1999/xlink" x="0px" y="0px"
	 viewBox="0 0 5450.2 1461.1" style="enable-background:new 0 0 5450.2 1461.1;" xml:space="preserve">
<style type="text/css">
	.st0{opacity:0.23;}
	.st1{fill:none;stroke:#01A14A;stroke-miterlimit:10;}
	.st2{fill:none;stroke:#02737B;stroke-miterlimit:10;}
	.st3{fill:none;stroke:#4E4E4E;stroke-miterlimit:10;}
	.st4{fill:none;stroke:#58C3B8;stroke-miterlimit:10;}
	.st5{fill:#4E4E4E;}
	.st6{fill:none;stroke:#D61F2B;stroke-miterlimit:10;}
	.st7{fill:none;stroke:#355EAB;stroke-miterlimit:10;}
	.st8{fill:none;stroke:#1BC3F2;stroke-miterlimit:10;}
	.st9{opacity:0.6;fill:none;stroke:#932A8E;stroke-miterlimit:10;enable-background:new    ;}
	.st10{opacity:0.75;fill:none;stroke:#F79421;stroke-miterlimit:10;enable-background:new    ;}
	.st11{fill:none;stroke:#427DC0;stroke-miterlimit:10;}
	.st12{fill:none;stroke:#F89820;stroke-miterlimit:10;}
	.st13{fill:none;stroke:#FECE24;stroke-miterlimit:10;}
	.st14{opacity:0.7;fill:none;stroke:#FBB03C;stroke-miterlimit:10;enable-background:new    ;}
	.st15{fill:#010101;}
	.st16{opacity:0.6;fill:none;stroke:#C1282D;stroke-width:4;stroke-miterlimit:10;enable-background:new    ;}
	.st17{fill:#FFFFFF;stroke:#F06523;stroke-width:4;stroke-miterlimit:10;}
	.st18{fill:none;stroke:#C6212D;stroke-width:4;stroke-miterlimit:10;}
	.st19{fill:none;stroke:#F89820;stroke-width:4;stroke-miterlimit:10;}
	.st20{fill:none;stroke:#F06523;stroke-width:4;stroke-miterlimit:10;}
	.st21{fill:none;stroke:#EE312E;stroke-width:4;stroke-miterlimit:10;}
	.st22{fill:#FFFFFF;stroke:#EC1E61;stroke-width:4;stroke-miterlimit:10;}
	.st23{fill:none;stroke:#38C1F1;stroke-width:4;stroke-miterlimit:10;}
	.st24{fill:none;stroke:#427DC0;stroke-width:4;stroke-miterlimit:10;}
	.st25{fill:none;stroke:#F89721;stroke-width:4;stroke-miterlimit:10;}
	.st26{opacity:0.2;}
	.st27{fill:none;stroke:#FFFFFF;stroke-width:4;}
	.st28{fill:#FFFFFF;stroke:#38C1F1;stroke-width:4;stroke-miterlimit:10;}
	.st29{opacity:0.7;fill:none;stroke:#00A99D;stroke-miterlimit:10;enable-background:new    ;}
	.st30{fill:#FFFFFF;stroke:#01A14A;stroke-miterlimit:10;}
	.st31{fill:#FFFFFF;stroke:#692E66;stroke-miterlimit:10;}
	.st32{opacity:0.7;fill:none;stroke:#B9539F;stroke-miterlimit:10;enable-background:new    ;}
	.st33{fill:#FFFFFF;stroke:#B9539F;stroke-miterlimit:10;enable-background:new    ;}
	.st34{fill:#FFFFFF;stroke:#B6732C;stroke-miterlimit:10;}
	.st35{fill:#FFFFFF;stroke:#C6212D;stroke-miterlimit:10;}
	.st36{fill:#FFFFFF;stroke:#F89820;stroke-miterlimit:10;}
</style>
<g class="st0">
	<g>
		<polygon class="st1" points="5578.4,1044.2 5578.4,920.8 4532.7,1522.5 4747.2,1522.5 		"/>
		<polygon class="st2" points="5578.4,901.5 5578.4,870.3 4445,1522.5 4499.3,1522.5 		"/>
		<polygon class="st3" points="5578.4,1204.8 5578.4,1189.2 4999.2,1522.5 5026.4,1522.5 		"/>
		<polygon class="st3" points="5578.4,1070.6 5578.4,1051.3 4759.6,1522.5 4793.2,1522.5 		"/>
		<polygon class="st3" points="5578.4,1339.5 5578.4,1214 5042.2,1522.5 5260.4,1522.5 		"/>
		<polygon class="st3" points="5578.4,1112.5 5578.4,1081.3 4811.7,1522.5 4866,1522.5 		"/>
		<polygon class="st4" points="5578.4,647.7 5578.4,628.4 4024.8,1522.5 4058.3,1522.5 		"/>
		<polygon class="st5" points="5578.4,1362.4 5578.4,1362.2 5299.7,1522.5 5300,1522.5 		"/>
		<polygon class="st5" points="5333.3,1522.5 5578.4,1381.5 5578.4,1380.4 5331.3,1522.5 		"/>
		<polygon class="st6" points="5578.4,785.7 5578.4,738.4 4215.3,1522.5 4297.5,1522.5 		"/>
		<polygon class="st6" points="5578.4,1500.7 5578.4,1453.4 5458.2,1522.5 5540.4,1522.5 		"/>
		<polygon class="st7" points="5578.4,609.5 5578.4,531.5 3856.4,1522.5 3992.1,1522.5 		"/>
		<polygon class="st8" points="5578.4,464.7 5578.4,426.6 3674.1,1522.5 3740.4,1522.5 		"/>
		<polygon class="st3" points="5578.4,408 5578.4,395 3619.2,1522.5 3641.8,1522.5 		"/>
		<polygon class="st5" points="5331.3,1522.5 5578.4,1380.4 5578.4,1362.4 5300,1522.5 		"/>
		<polygon class="st9" points="5331.3,1522.5 5578.4,1380.4 5578.4,1362.4 5300,1522.5 		"/>
		<polygon class="st10" points="5578.4,1420.1 5578.4,1402.1 5369,1522.5 5400.3,1522.5 		"/>
		<polygon class="st11" points="5578.4,293.5 5578.4,275.5 3412.1,1522.5 3443.4,1522.5 		"/>
		<polygon class="st1" points="1977.1,1442.2 4608.6,-72.1 4394.1,-72.1 1923.6,1349.6 		"/>
		<polygon class="st2" points="1953.1,1313.3 4360.6,-72.1 4306.4,-72.1 1939.6,1289.9 		"/>
		<polygon class="st3" points="4887.7,-72.1 4860.5,-72.1 2089.5,1522.5 2116.7,1522.5 		"/>
		<polygon class="st3" points="2012.1,1448.5 4654.5,-72.1 4621,-72.1 2003.8,1434 		"/>
		<polygon class="st3" points="5121.8,-72.1 4903.6,-72.1 2132.5,1522.5 2350.7,1522.5 		"/>
		<polygon class="st3" points="1970.3,1514.5 4727.3,-72.1 4673.1,-72.1 1956.8,1491.1 		"/>
		<polygon class="st4" points="1912.4,1083 3919.6,-72.1 3886.1,-72.1 1904.1,1068.5 		"/>
		<polygon class="st5" points="5161.6,-72.1 5161.3,-72.1 2389.3,1522.5 2389.5,1522.5 		"/>
		<polygon class="st5" points="2422.9,1522.5 5194.9,-72.1 5192.9,-72.1 2420.9,1522.5 		"/>
		<polygon class="st6" points="2329.1,980.7 4159.1,-72.1 4076.9,-72.1 2308.6,945.2 		"/>
		<polygon class="st2" points="5578.4,114.7 5578.4,83.5 3077.8,1522.5 3132,1522.5 		"/>
		<polygon class="st6" points="5402,-72.1 5319.8,-72.1 2547.8,1522.5 2630,1522.5 		"/>
		<polygon class="st7" points="1826.6,1094.4 3853.4,-72.1 3717.7,-72.1 1792.8,1035.7 		"/>
		<polygon class="st8" points="1875,921.6 3601.7,-72.1 3535.4,-72.1 1863.7,890 		"/>
		<polygon class="st3" points="1799.8,908.2 3503.1,-72.1 3480.6,-72.1 1794.2,898.4 		"/>
		<polygon class="st9" points="2420.9,1522.5 5192.9,-72.1 5161.6,-72.1 2389.5,1522.5 		"/>
		<polygon class="st10" points="5261.9,-72.1 5230.6,-72.1 2458.5,1522.5 2489.9,1522.5 		"/>
		<polygon class="st3" points="5578.4,261.4 5578.4,210.2 3299.2,1522.5 3388.1,1522.5 		"/>
		<polygon class="st11" points="5578.4,196.9 5578.4,183.9 3253.5,1522.5 3276.1,1522.5 		"/>
		<polygon class="st3" points="3127.5,-72.1 3038.6,-72.1 268.9,1522.5 357.9,1522.5 		"/>
		<polygon class="st11" points="3015.4,-72.1 2992.9,-72.1 223.3,1522.5 245.8,1522.5 		"/>
		<polygon class="st11" points="3182.9,-72.1 3151.5,-72.1 381.3,1522.5 412.6,1522.5 		"/>
		<polygon class="st1" points="357.2,-72.1 -76.6,177.5 -76.6,300.9 571.7,-72.1 		"/>
		<polygon class="st2" points="269.4,-72.1 -76.6,127 -76.6,158.2 323.7,-72.1 		"/>
		<polygon class="st3" points="584.1,-72.1 -76.6,308.1 -76.6,327.4 617.6,-72.1 		"/>
		<polygon class="st3" points="636.2,-72.1 -76.6,338 -76.6,369.3 690.4,-72.1 		"/>
		<polygon class="st6" points="42.4,-57.1 -74.1,10 -74.1,57.3 124.6,-57.1 		"/>
		<polygon class="st1" points="1162.5,1249.8 1148.8,1226.1 634.3,1522.5 689,1522.5 		"/>
		<polygon class="st12" points="1098.4,1367.7 1090.8,1354.6 799.3,1522.5 829.7,1522.5 		"/>
		<polygon class="st11" points="1262.4,1359.7 1254.8,1346.6 949.4,1522.5 979.9,1522.5 		"/>
		<polygon class="st1" points="1675.6,-72.1 -76.6,937.6 -76.6,1061.1 1889.8,-72.1 		"/>
		<polygon class="st2" points="1588,-72.1 -76.6,887.2 -76.6,918.4 1642.2,-72.1 		"/>
		<polygon class="st3" points="2141.5,-72.1 -76.6,1206.2 -76.6,1221.8 2168.7,-72.1 		"/>
		<polygon class="st3" points="1902.2,-72.1 -76.6,1068.3 -76.6,1087.6 1935.7,-72.1 		"/>
		<polygon class="st3" points="2299.6,-72.1 2184.5,-72.1 -76.6,1230.9 -76.6,1356.6 2331.9,-31.5 		"/>
		<polygon class="st3" points="1954.2,-72.1 -76.6,1098.2 -76.6,1129.4 2008.4,-72.1 		"/>
		<polygon class="st4" points="1168.3,-72.1 -76.6,645.3 -76.6,664.6 1201.8,-72.1 		"/>
		<polygon class="st4" points="2365.7,235.5 2357.3,221 98.9,1522.5 132.4,1522.5 		"/>
		<polygon class="st6" points="1359.4,-72.1 -76.6,755.2 -76.6,802.5 1441.5,-72.1 		"/>
		<polygon class="st7" points="1000,-72.1 -76.6,548.3 -76.6,626.5 1135.5,-72.1 		"/>
		<polygon class="st7" points="855.8,-72.1 -76.6,466.2 -76.6,544.4 991.2,-72.1 		"/>
		<path class="st13" d="M2457.6,117.9c-2.1-2.8-4.4-5.5-6.7-8.1c-2.7-3.1-5.4-6.2-8.2-9.3l-2467.9,1422H20L2457.6,117.9z"/>
		<path class="st12" d="M2434.9,92c-0.8-0.9-1.6-1.7-2.5-2.6c-1.8-1.9-3.7-3.8-5.6-5.7L-70.6,1522.5h22.5L2434.9,92z"/>
		<polygon class="st9" points="2372.4,-30.2 -76.6,1380.7 -76.6,1398.8 2380.2,-16.7 		"/>
		<polygon class="st10" points="2443.2,-31.3 -76.6,1420.5 -76.6,1438.5 2451,-17.7 		"/>
		<polygon class="st14" points="1310.8,40.2 1319.8,56.9 1338.8,57.3 1348.8,41.1 1339.7,24.4 1320.7,23.9 		"/>
		<polygon class="st4" points="4590.5,580 4582.2,565.5 2919.1,1522.5 2952.6,1522.5 		"/>
		<path class="st13" d="M4813.1,379.8c-2.1-2.8-4.4-5.5-6.7-8.1c-2.7-3.1-5.4-6.2-8.2-9.3L2781.8,1522.5h45.1L4813.1,379.8z"/>
		<path class="st12" d="M4790.4,353.8c-0.8-0.9-1.6-1.7-2.5-2.6c-1.8-1.9-3.7-3.8-5.6-5.7l-2046,1177.1h22.6L4790.4,353.8z"/>
		<polygon class="st15" points="2358.5,1540.4 2389.5,1522.5 2389.3,1522.5 2358.4,1540.3 		"/>
		<polygon class="st15" points="-76.6,1539 -48.1,1522.5 -70.6,1522.5 -76.6,1526 		"/>
	</g>
	<g>
		<g>
			
				<rect x="1521.1" y="1224.4" transform="matrix(0.866 -0.5 0.5 0.866 -298.1051 1359.3925)" class="st16" width="1732.9" height="23.1"/>
			<path class="st17" d="M2968.8,262.5c61.1,24,127.8,65.9,186.6,128.9C3266.7,510.8,3418.4,847,3418.4,847l-63.6,36.7
				c0.1,0.1-90.8,52.4-90.8,52.4l-1.4-2.7c-28.1-56.1-95.1-87.5-157.7-69.9c-28.2,8.4-52.5,23.7-71.1,46.3
				c-36.3,44.8-40.6,110.7-9.8,159l2.1,3.3L2244.7,1523l-0.8-1.6c-28.1-56.1-95.1-87.5-157.7-69.9c-28.2,8.4-52.5,23.7-71.1,46.3
				c-36.3,44.8-40.6,110.7-9.8,159l2.1,3.5l-348.9,200.5l-304.9-528.3c0,0-38.5-65.4-59.8-103.6"/>
			<path class="st18" d="M1898.3,1272.3l-350.2,202.1c-11.6,6.7-26.4,2.7-33-8.9l-110.4-191.2c-6.7-11.6-2.7-26.4,8.9-33
				l350.2-202.1c11.6-6.7,26.4-2.7,33,8.9l110.4,191.2C1913.8,1250.8,1909.9,1265.6,1898.3,1272.3z"/>
			<path class="st18" d="M2279.8,1052.1l-297.2,171.5c-11.6,6.7-26.4,2.7-33-8.9l-110.4-191.2c-6.7-11.6-2.7-26.4,8.9-33L2145.2,819
				c11.6-6.7,26.4-2.7,33,8.9l110.4,191.2C2295.3,1030.6,2291.4,1045.4,2279.8,1052.1z"/>
			<polygon class="st19" points="2839.7,1170 2547.8,1338.5 2216,772.1 2507.1,602.3 			"/>
			<line class="st20" x1="2363.4" y1="686.1" x2="2693" y2="1257.3"/>
			<g>
				
					<rect x="2349.3" y="782.9" transform="matrix(0.8661 -0.4998 0.4998 0.8661 -127.7774 1314.6212)" class="st20" width="81.7" height="225.8"/>
				
					<rect x="2490.8" y="701.3" transform="matrix(0.8661 -0.4998 0.4998 0.8661 -68.0251 1374.4066)" class="st20" width="81.7" height="225.8"/>
			</g>
			<g>
				
					<rect x="2508.7" y="1109.1" transform="matrix(0.8661 -0.4998 0.4998 0.8661 -244.5228 1431.3021)" class="st20" width="81.7" height="126"/>
				
					<rect x="2650.2" y="1027.5" transform="matrix(0.8661 -0.4998 0.4998 0.8661 -184.7705 1491.0874)" class="st20" width="81.7" height="126"/>
			</g>
			<g>
				
					<rect x="2569.1" y="980.6" transform="matrix(0.8661 -0.4998 0.4998 0.8661 -151.0974 1424.5342)" class="st20" width="29.1" height="27.4"/>
				
					<rect x="2505.5" y="1017.3" transform="matrix(0.8661 -0.4998 0.4998 0.8661 -177.951 1397.6658)" class="st20" width="29.1" height="27.4"/>
			</g>
			<path class="st18" d="M3057.9,603l-339.5,195.9c-11.6,6.7-26.4,2.7-33-8.9l-110.4-191.2c-6.7-11.6-2.7-26.4,8.9-33l319.4-184.3
				c11.6-6.7,25.5-1.5,33,8.9L3066.8,570C3073.3,581.2,3069.5,596.4,3057.9,603z"/>
			<path class="st18" d="M3083.5,772l-118.2-8.6c-17.3-1.3-23.8-24-9.2-33.5c0.4-0.3,0.8-0.5,1.2-0.7l139.4-80.4
				c11.6-6.7,25.5-1.5,33,8.9l33.9,46.7c8.7,12,5.1,28.8-7.7,36.2l-43,24.8C3103.9,770.4,3093.7,772.7,3083.5,772z"/>
			<path class="st21" d="M3353.1,721.5l-40.6,23.5c-6.4,3.7-7.8,11.8-4.9,18.3l13,29.2c3.3,7.5,12.4,10.4,19.5,6.3l39.4-22.7"/>
			<path class="st21" d="M1524.9,1619.5l26.1-15.1c11.6-6.7,26.8,0.8,35.8,13.7l40.5,58.1c10.4,14.9,8.3,34.3-4.5,41.7l-30.9,17.8"
				/>
			<path class="st18" d="M3012.9,290c-0.2-0.4-34.7,20-34.7,20c-14.2,8.2-18.2,27-8.5,40.2L3140,583.7c8.3,11.4,23.9,14.7,36.2,7.7
				l77.9-44.9C3254,546.4,3157,355.8,3012.9,290z"/>
			<path class="st22" d="M2830.1,244.1l-62.7-141.6c-6.7-15-19.3-23.4-39.1-12.8c-135.3,81-255.5,120.4-232.2,291.5"/>
			<g>
				<circle class="st23" cx="2124.1" cy="1586" r="110.2"/>
				<circle class="st24" cx="2124.1" cy="1586" r="21"/>
			</g>
			<line class="st21" x1="3338.7" y1="693.7" x2="2757.9" y2="1028.9"/>
			<line class="st21" x1="2463.5" y1="1198.8" x2="1629.5" y2="1680.1"/>
			<line class="st21" x1="2424.5" y1="1131.3" x2="1583.7" y2="1616.5"/>
			<line class="st25" x1="1608.3" y1="1649.2" x2="1554.9" y2="1680.1"/>
			<path class="st21" d="M3279,837.2l-35.3,20.4c-3.7,2.2-8.5,0.6-10.3-3.3l-6.8-15.4c-1.5-3.4-0.8-7.7,2.6-9.6l35.9-20.7
				c2.7-1.5,6.1-0.4,7.4,2.4l8.8,19.5C3282.3,832.9,3281.3,835.9,3279,837.2z"/>
			<path class="st21" d="M2450.6,1268.7l-249.7,144.1c-3.7,2.2-8.1,1.3-9.4-1.8l-5-12.3c-1.1-2.7,0-6.4,3.3-8.3l250.2-144.4
				c2.7-1.5,5.8-0.9,6.8,1.3l6.5,15.5C2454.2,1264.8,2453,1267.3,2450.6,1268.7z"/>
			<path class="st21" d="M2471.4,1349.1l-186.5,107.7c-7.3,4.2-15.9,2.5-18.4-3.6l-9.9-23.9c-2.2-5.3-0.1-12.5,6.5-16.3l187.6-108.3
				c5.2-3,11.4-1.8,13.2,2.6l12.7,30.3C2478.3,1341.4,2476,1346.4,2471.4,1349.1z"/>
			<path class="st21" d="M2956.1,976.9l-114.7,66.2c-3.7,2.2-8.1,1.3-9.4-1.8l-5-12.3c-1.1-2.7,0-6.4,3.3-8.3l115.3-66.5
				c2.7-1.5,5.8-0.9,6.8,1.3l6.5,15.5C2959.7,973,2958.5,975.6,2956.1,976.9z"/>
			<path class="st21" d="M2968.7,1062.1l-73.5,42.4c-7.3,4.2-15.9,2.5-18.4-3.6l-9.9-23.9c-2.2-5.3-0.1-12.5,6.5-16.3l74.6-43
				c5.2-3,11.4-1.8,13.2,2.6l12.7,30.3C2975.6,1054.4,2973.3,1059.4,2968.7,1062.1z"/>
			<path class="st21" d="M1928.3,1615.6l-249.7,144.1c-3.7,2.2-8.1,1.3-9.4-1.8l-5-12.3c-1.1-2.7,0-6.4,3.3-8.3l250.2-144.4
				c2.7-1.5,5.8-0.9,6.8,1.3l6.5,15.5C1931.8,1611.7,1930.7,1614.3,1928.3,1615.6z"/>
			<g id="roof_00000098932209509617834650000008869506152939386545_" transform="translate(59.777778, 64.018127)">
				<path class="st22" d="M1234,1164.8c0,0-49.2-85.1,43-152.3c10.7-6,791.5-456.7,791.5-456.7c119.4-111.3,493.7-334.5,700.2-378.8
					c35.8-7.3,85.8-0.8,140.3,20.6l1.6,0.7l-1676.2,967.4"/>
			</g>
			
				<g id="text_00000075854321993780772690000002857704660751584664_" transform="translate(480.720700, 160.481819) rotate(-21.000000) translate(-480.720700, -160.481819) translate(329.720700, 154.981819)" class="st26">
				<path id="Path-38_00000085214961218234257590000008373336940282605445_" class="st27" d="M1188.4,1118.5
					c7.1,38.4-3.6,35.2,18.4,31.9"/>
				<path id="Path-39_00000039097840721783379630000014242818027005640378_" class="st27" d="M1207.1,1116
					c5.9,27.4,5.5,15.8,4.6,34.8"/>
				<path id="Path-40_00000176762988129179790510000000893012585232586890_" class="st27" d="M1229.6,1120.1
					c-19.2-22.3-18.8,23.6-3.9,27.8c2.2,0.6,5.7,1.7,6.6-0.5c8-21.8-1.8-16.7-11.7-15.9"/>
				<path id="Path-41_00000042738706875035471700000014967617336420202633_" class="st27" d="M1236.4,1110.4
					c1.7,12.4,3.5,24.9,5.2,37.3"/>
				<path id="Path-42_00000043456954996239991850000017627450811360225726_" class="st27" d="M1239.1,1126.5c4.9-0.5,9.7-1,14.6-1.4
					"/>
				<path id="Path-43_00000093873450937829402580000000882118646878784393_" class="st27" d="M1249.5,1108
					c2.1,12.5,4.2,25.1,6.3,37.6"/>
				<path id="Path-44_00000114760968326090791440000007683540961756459668_" class="st27" d="M1254,1110.5
					c5.9-0.7,11.8-1.4,17.7-2.1"/>
				<path id="Path-45_00000107575363066029984980000009906478768584469417_" class="st27" d="M1261.2,1110.4
					c1.5,11,3.1,21.9,4.6,32.9"/>
				<path id="Path-46_00000055688147504287542360000007160786133068985731_" class="st27" d="M1296.2,1101.5
					c2.2,11.3,4.3,22.5,6.5,33.8"/>
				<path id="Path-47_00000117648605503225245030000001141204300247294351_" class="st27" d="M1296.7,1101.7
					c0.3-0.1,15.6-7.2,18,0.7c1,3.1,1.5,7.8-0.7,9.8c-3.8,3.6-13.4-1.2-14.4,4.4c-0.9,5,11.6-4.4,13.5,0.3c12.2,13,0.5,17-10.5,17.1
					"/>
				<path id="Path-48_00000109709290639206343270000001065742144724451005_" class="st27" d="M1317.8,1098.7
					c2.8,12.2-0.3,27.6,11.7,30.5c10-0.3,1-24.5,0.9-31.7"/>
				<path id="Path-49_00000078726714370023912620000017755458413641648775_" class="st27" d="M1351.7,1094.7
					c-2.8,0.1-6.2-1.6-8.3,0.4c-12.8,12.2,7.8,15,11.6,18.6c8.6,8-0.7,17.2-8.5,11.3"/>
				<path id="Path-50_00000145022951800427940920000017427394428672994980_" class="st27" d="M1381.7,1095.7
					c11.5-16.4,4.7-10.7,10.5,27.3"/>
				<path id="Path-51_00000099653264497979521210000005264968733565904280_" class="st27" d="M1408.6,1090
					c-18.8-9.1-10.6,30.2-1.2,30.8c13.1,0.8,1.2-30-7.3-13.8"/>
				<path id="Path-52_00000173839798415674309740000010822484889732403636_" class="st27" d="M1448.8,1083.6
					c-2.6-2.3-19.2-4.3-11.3,6.4c3.3,4.4,10.5,2.4,14,6.5c3.9,4.5,0.9,27.8-12.5,7.6"/>
				<path id="Path-53_00000042000089213493908430000008776597435479575472_" class="st27" d="M1453.9,1079.7
					c1.6,10.3,3.2,20.6,4.7,30.9"/>
				<path id="Path-54_00000004526357328630685360000008930407562658316427_" class="st27" d="M1454.5,1079.2
					c5.2-0.8,10.4-1.7,15.6-2.5"/>
				<path id="Path-55_00000025428488784616269210000018017773211756304807_" class="st27" d="M1456.8,1093.3
					c4.4-0.8,8.7-1.5,13.1-2.3"/>
				<path id="Path-56_00000063629829519519360800000016402029869483452044_" class="st27" d="M1458.4,1109.6
					c5.7-1,11.5-2.1,17.2-3.1"/>
				<path id="Path-57_00000053531913581037303900000016834095002680305074_" class="st27" d="M1481.1,1074.4
					c-1.1,10.9-2.1,21.8-3.2,32.7"/>
				<path id="Path-58_00000089537772188994182320000014176331965530413968_" class="st27" d="M1481.3,1075.3
					c11.4,20.8,7.1,10.3,13.5,31.3"/>
				<path id="Path-59_00000159448527140972378890000009304153440028783766_" class="st27" d="M1480.3,1096.8c3.3-0.5,6.7-1,10-1.5"
					/>
				<path id="Path-60_00000042704239427052737250000006825473979071543192_" class="st27" d="M1491.4,1074.1c6-0.7,11.9-1.3,17.9-2"
					/>
				<path id="Path-61_00000080894135133136909440000014977775225017815972_" class="st27" d="M1500,1073.4
					c1.9,10.6,3.9,21.3,5.8,31.9"/>
				<path id="Path-62_00000030465190466100591420000012215036040997023924_" class="st27" d="M1527.1,1072.8
					c-6.8-3.8-20.7,0.1-9.5,10.2c3.3,3,9,2.1,11.6,5.9c14.5,20.8-8.8,11-14,6.4"/>
				<path id="Path-63_00000065767852150507580780000013853496115426010030_" class="st27" d="M1576.7,1058.7
					c-5.2,5.9-10.4,11.8-15.6,17.7"/>
				<path id="Path-64_00000106863887159955481210000008388186712783355316_" class="st27" d="M1575.9,1059.1
					c6.7,4.1,13.5,8.2,20.2,12.4"/>
				<path id="Path-65_00000176002365861663592800000007804844332678419861_" class="st27" d="M1577.8,1070.5
					c-16.8,32.9-19.7,24.4,17.5,18.9"/>
				<path id="Path-66_00000132767885209214409630000009929179455604839827_" class="st27" d="M1587.4,1082.5
					c3.8,3.2,7.6,6.3,11.4,9.5"/>
				<path id="Path-67_00000039100144960418321070000009343108062540337338_" class="st27" d="M1634,1060c11.3-2,22.5-4,33.8-6"/>
				<path id="Path-68_00000102538532367901248910000014506419716959762341_" class="st27" d="M1632.5,1070.7
					c13.3-2.2,26.5-4.3,39.8-6.5"/>
				<path id="Path-69_00000145767602375174040970000005589042880063908257_" class="st27" d="M1641.4,1045.9
					c1.4,7.1,2.8,14.3,4.3,21.4"/>
				<path id="Path-70_00000135686733675659163810000002867319435498768569_" class="st27" d="M1654.9,1045.5
					c1.3,6.5,2.6,13,3.9,19.5"/>
				<path id="Path-71_00000153665666290518569910000000528361519008211894_" class="st27" d="M1644.1,1073.6
					c-2.4,4.9-4.8,9.7-7.3,14.6"/>
				<path id="Path-72_00000129906999884726097940000006060472648442358425_" class="st27" d="M1656.6,1072.3
					c4.7,3.1,9.4,6.2,14.1,9.3"/>
				<path id="Path-73_00000001653792010538345870000003885230858368973986_" class="st27" d="M1718.3,1032.8
					c7.9,45.1,18.9,49.1,1.3,39.1"/>
				<path id="Path-74_00000016071336741731362880000014967614197404318610_" class="st27" d="M1711.7,1047.1
					c-2.2,5.9-4.4,11.8-6.6,17.6"/>
				<path id="Path-75_00000140699835635421301420000010239487596858437053_" class="st27" d="M1730.2,1044.9
					c3.6,4.3,7.2,8.6,10.8,12.9"/>
				<path id="Path-76_00000000206635825896633590000000430461693753379476_" class="st27" d="M1845,1019.8
					c2.8,10.2,0.7,24.4,8.4,30.7c7.1,5.9,20.9,5.6,25.8-2.3l3.2-1.6c0.6-0.9,0-2.3,0-3.5"/>
				<path id="Path-77_00000144307709376028902730000008406863765449082752_" class="st27" d="M1844.3,1019.3
					c35.2-6.4,27.7-16.9,33.3,13.3"/>
				<path id="Path-78_00000079466663085183682450000005011849402938742159_" class="st27" d="M1847.8,1033.4
					c9.8-1.5,19.7-3,29.5-4.5"/>
				<path id="Path-79_00000063612606804842397630000013309275193853808262_" class="st27" d="M1860.2,1017.1c0.7,4.1,1.3,8.3,2,12.4
					"/>
				<path id="Path-80_00000100367266712778177400000013674127987142960520_" class="st27" d="M1914,1018.8
					c13.8-2.1,27.6-4.2,41.4-6.3"/>
				<path id="Path-81_00000069389232908639895710000010129537335587759791_" class="st27" d="M1931.3,999.3
					c2.6,11.5,5.2,23.1,7.8,34.6"/>
				<path id="Path-82_00000013160540803333572850000011594842128301779888_" class="st27" d="M1921.7,1038.3
					c10.5-1.9,21-3.9,31.5-5.8"/>
				<path id="Path-83_00000140712276485547102760000001604908200353961656_" class="st27" d="M1987,1010.2
					c10.8-1.6,21.7-3.2,32.5-4.8"/>
				<path id="Path-84_00000020358925153027042640000012329126811969484718_" class="st27" d="M2001.6,994
					c2.4,12.1,4.8,24.1,7.2,36.2"/>
				<path id="Path-85_00000137855129362622436440000004514963128207475125_" class="st27" d="M2072.2,978.4c2.2,1.4,4.4,2.8,6.5,4.2
					"/>
				<path id="Path-86_00000165208494513543145220000003106979507556723602_" class="st27" d="M2060.5,990.6
					c11.5-1.7,23-3.5,34.4-5.2"/>
				<path id="Path-87_00000182493937737659539240000004308712784160669352_" class="st27" d="M2072.4,1000.2
					c-2.9,6.7-5.9,13.4-8.8,20.2"/>
				<path id="Path-88_00000170262899033116854940000012664727758132893626_" class="st27" d="M2080,1000.5
					c6.6,3.9,13.1,7.9,19.7,11.8"/>
				<path id="Path-89_00000162352299630708450450000013816974101478410669_" class="st27" d="M2143.6,965.4c1.8,1.3,3.6,2.6,5.4,3.9
					"/>
				<path id="Path-90_00000106116414197494527670000002125308481062387615_" class="st27" d="M2131,975.6
					c11.1-2.2,22.2-4.4,33.3-6.5"/>
				<path id="Path-91_00000032622808358099341930000005405971404962181006_" class="st27" d="M2131.4,976.1
					c5.6,30.2,6.6,18.7,4.1,34.8"/>
				<path id="Path-92_00000142875760975724661520000007276951701418860713_" class="st27" d="M2138.3,992c9.5-1.2,18.9-2.4,28.4-3.6
					"/>
				<path id="Path-93_00000034780042927202265330000003507223378156443798_" class="st27" d="M2148.7,977.5
					c1.7,8.2,3.5,16.4,5.2,24.7"/>
				<path id="Path-94_00000056403971187546777560000016145006359248264870_" class="st27" d="M2138.3,1005.4
					c10.4-1.6,20.9-3.2,31.3-4.8"/>
				<path id="Path-95_00000082352451716418979930000003959068598881168539_" class="st27" d="M2143.1,978.9
					c-1.1,3.1-2.3,6.3-3.4,9.4"/>
				<path id="Path-96_00000129207748121696469450000016970404228120806042_" class="st27" d="M2142.3,983.1c1.6,1,3.2,1.9,4.8,2.9"
					/>
				<path id="Path-97_00000109749414540565422130000008353416429501034403_" class="st27" d="M2158.1,977.9c-1.2,2.7-2.3,5.3-3.5,8"
					/>
				<path id="Path-98_00000048486718868704338130000000283983060186623899_" class="st27" d="M2157.7,981.2c1.5,1,3.1,2,4.6,3"/>
				<path id="Path-99_00000129206213428163548240000015323344218270362769_" class="st27" d="M2217.3,958.9c2.6,1.2,5.3,2.4,7.9,3.6
					"/>
				<path id="Path-100_00000043450657667570283490000007149661379249731507_" class="st27" d="M2212.7,967.3
					c8.6-1.7,17.2-3.5,25.7-5.2"/>
				<path id="Path-101_00000145037096343946212550000013270198931253935511_" class="st27" d="M2216.1,975.7
					c4.1,3.5,8.1,7.1,12.2,10.6"/>
				<path id="Path-102_00000075121835590501328620000016446348444877827254_" class="st27" d="M2237.4,970.7
					c-1.7,5.2-3.4,10.4-5.1,15.6"/>
				<path id="Path-103_00000116236696156102761540000017515924263010172070_" class="st27" d="M2215.1,993.6
					c8.8-1.5,17.7-3,26.5-4.4"/>
				<path id="Path-104_00000111158985160850150670000006830887510616799417_" class="st27" d="M2210.8,961.8
					c-3.3,4.6-6.7,9.2-10,13.7"/>
				<path id="Path-105_00000014615552551082528010000007900537142969891507_" class="st27" d="M2206.2,968.8
					c1.5,10.3,2.9,20.6,4.4,30.9"/>
				<path id="Path-106_00000010281938298551108850000017555223747174862209_" class="st27" d="M1768.9,1030
					c7.8-1.2,15.7-2.4,23.5-3.6"/>
				<path id="Path-107_00000006673283628226942790000010399101966959515062_" class="st27" d="M1779,1030.1
					c2.4,13.2,4.4,8.5-3.1,15.3"/>
				<path id="Path-108_00000047056735425859886940000015958164679851551655_" class="st27" d="M1786.7,1028.8
					c0.8,4.6,1.5,9.2,2.3,13.8"/>
				<path id="Path-109_00000030476350291583746010000016662069654668806794_" class="st27" d="M1771.5,1038.5
					c7.3-1.1,14.5-2.2,21.8-3.3"/>
				<path id="Path-110_00000111184753393441644200000001386888810233492130_" class="st27" d="M1796.6,1025
					c0.7,4.4,1.4,8.7,2.1,13.1"/>
				<path id="Path-111_00000175286718030403559680000006315366975528651192_" class="st27" d="M1802.3,1023.5
					c2.9,16.9,5.8,11.7-0.3,18.6"/>
				<path id="Path-112_00000121265433010591139560000006263905053464254894_" class="st27" d="M1777.6,1050.9
					c9.6-1.6,19.1-3.2,28.7-4.7"/>
				<path id="Path-113_00000152982359646785483660000009335570535033691809_" class="st27" d="M1775,1060.4
					c12.4-1.9,24.8-3.9,37.1-5.8"/>
				<path id="Path-114_00000178174481069590963560000002566268858393698991_" class="st27" d="M1791.2,1043.7
					c0.8,4.5,1.6,9.1,2.5,13.6"/>
				<path id="Path-30_00000025417189024039015380000010320568544645405107_" class="st27" d="M1060.1,1139.7
					c2.3,12.3,4.5,24.6,6.8,36.9"/>
				<path id="Path-31_00000022532399187591071990000011433648371974402707_" class="st27" d="M1060,1137.9
					c27.6-3.2,16.1,23.4,4.4,22.6"/>
				<path id="Path-32_00000181801118231829095840000011515960658424544945_" class="st27" d="M1079.4,1136.4
					c6.2,31.1,24.3,62,11.7-2.5"/>
				<path id="Path-33_00000085934970844042871040000002329994129406673809_" class="st27" d="M1099,1133.9
					c1.7,11.6,3.5,23.3,5.2,34.9"/>
				<path id="Path-34_00000054971008266086797400000012045585438955843213_" class="st27" d="M1099,1133.7c4.2-0.2,9.1-3.5,12.5-0.6
					c16.9,14-9.2,13.8-8.2,18c1.1,4.4,8.7-1.3,11.9,1.5c16.8,14.7-10.1,16.7-12.4,17"/>
				<path id="Path-35_00000055688122679047702750000002679941568945647250_" class="st27" d="M1120,1131.7
					c7,41.1-4.2,36.8,21.9,32.1"/>
				<path id="Path-36_00000006696453715017248660000012137449120612461199_" class="st27" d="M1159.1,1130.1
					c-23-20.5-6.4,53.3,3.8,22"/>
				<path id="Path-37_00000174589025350197062260000011373432507016038797_" class="st27" d="M1138.1,1127.6
					c2.3,12.2,4.6,24.4,6.8,36.7"/>
			</g>
		</g>
		<g>
			<circle class="st28" cx="3140.2" cy="998.8" r="110.2"/>
			<circle class="st24" cx="3140.2" cy="998.8" r="21"/>
		</g>
	</g>
	<polygon class="st29" points="2990.5,105.9 2982.3,90.6 2991.3,75.8 3008.7,76.3 3017.1,91.6 3007.9,106.4 	"/>
	<polygon class="st14" points="3379.8,428.9 3370.8,412.2 3380.7,395.9 3399.7,396.4 3408.8,413.1 3398.8,429.3 	"/>
	<polygon class="st30" points="4556.7,609.1 4540.9,579.9 4558.2,551.6 4591.5,552.4 4607.3,581.6 4590,610 	"/>
	<polygon class="st31" points="4787.1,397.5 4763.7,354.5 4789.3,312.9 4838.1,314.2 4861.4,357.2 4835.9,398.8 	"/>
	<polygon class="st32" points="3053.1,145.9 3041.1,123.8 3054.3,102.5 3079.3,103.1 3091.3,125.1 3078.2,146.6 	"/>
	<polygon class="st33" points="3532.8,1082.5 3520.9,1060.4 3534,1039 3559.1,1039.7 3571,1061.7 3557.9,1083.1 	"/>
	<polygon class="st33" points="3522.3,1407.2 3510.3,1385.2 3523.4,1363.8 3548.5,1364.4 3560.5,1386.5 3547.3,1407.9 	"/>
	<polygon class="st30" points="2350.7,253.5 2334.8,224.3 2352.1,195.9 2385.4,196.8 2401.2,226 2383.9,254.4 	"/>
	<polygon class="st31" points="2435,132.7 2411.6,89.7 2437.2,48.1 2486,49.4 2509.3,92.4 2483.8,134 	"/>
	<polygon class="st34" points="1152.6,1263.9 1131.9,1225.8 1154.6,1188.8 1198,1190 1218.7,1228.1 1196,1265.1 	"/>
	<polygon class="st35" points="1091.3,1376.6 1079.8,1355.4 1092.4,1334.8 1116.6,1335.4 1128.1,1356.6 1115.4,1377.2 	"/>
	<polygon class="st36" points="1255.3,1368.6 1243.8,1347.4 1256.4,1326.8 1280.6,1327.4 1292.1,1348.6 1279.4,1369.2 	"/>
</g>
</svg>
